<svg width="1080" height="1080" viewBox="0 0 1080 1080" fill="none" xmlns="http://www.w3.org/2000/svg">
<path d="M518.787 21.2132L7.49924 532.501C3.43074 536.569 3.62628 543.223 7.92667 547.046L155.315 678.058C159.121 681.441 164.863 681.424 168.648 678.017L342 522L295.071 475.071C291.166 471.166 291.166 464.834 295.071 460.929L504.645 251.355C524.171 231.829 555.829 231.829 575.355 251.355L784.929 460.929C788.834 464.834 788.834 471.166 784.929 475.071L738 522L910.929 694.929C914.834 698.834 921.166 698.834 925.071 694.929L1072.93 547.071C1076.83 543.166 1076.83 536.834 1072.93 532.929L561.213 21.2132C549.497 9.49747 530.503 9.49747 518.787 21.2132Z" fill="white"/>
<path d="M388.929 583.071L223.071 748.929C219.166 752.834 219.166 759.166 223.071 763.071L525.858 1065.86C533.668 1073.67 546.332 1073.67 554.142 1065.86L857.291 762.709C861.052 758.948 861.211 752.901 857.653 748.948L709.051 583.834C705.218 579.576 698.598 579.402 694.547 583.453L668.929 609.071C667.054 610.946 664.51 612 661.858 612H436.142C433.49 612 430.946 610.946 429.071 609.071L403.071 583.071C399.166 579.166 392.834 579.166 388.929 583.071Z" fill="white"/>
<path d="M518.787 21.2132L7.49924 532.501C3.43074 536.569 3.62628 543.223 7.92667 547.046L155.315 678.058C159.121 681.441 164.863 681.424 168.648 678.017L342 522L295.071 475.071C291.166 471.166 291.166 464.834 295.071 460.929L504.645 251.355C524.171 231.829 555.829 231.829 575.355 251.355L784.929 460.929C788.834 464.834 788.834 471.166 784.929 475.071L738 522L910.929 694.929C914.834 698.834 921.166 698.834 925.071 694.929L1072.93 547.071C1076.83 543.166 1076.83 536.834 1072.93 532.929L561.213 21.2132C549.497 9.49747 530.503 9.49747 518.787 21.2132Z" stroke="black"/>
<path d="M388.929 583.071L223.071 748.929C219.166 752.834 219.166 759.166 223.071 763.071L525.858 1065.86C533.668 1073.67 546.332 1073.67 554.142 1065.86L857.291 762.709C861.052 758.948 861.211 752.901 857.653 748.948L709.051 583.834C705.218 579.576 698.598 579.402 694.547 583.453L668.929 609.071C667.054 610.946 664.51 612 661.858 612H436.142C433.49 612 430.946 610.946 429.071 609.071L403.071 583.071C399.166 579.166 392.834 579.166 388.929 583.071Z" stroke="black"/>
<path d="M535.53 397.91L433.851 502.79C431.383 505.336 431.383 509.464 433.851 512.01L460.061 539.045C460.654 539.657 461.458 540 462.296 540H617.704C618.542 540 619.346 539.657 619.939 539.045L646.149 512.01C648.617 509.464 648.617 505.336 646.149 502.79L544.47 397.91C542.001 395.363 537.999 395.363 535.53 397.91Z" fill="#AFAFAF" stroke="black"/>
</svg>
